<svg width="366" height="100" viewBox="0 0 366 100" fill="none" xmlns="http://www.w3.org/2000/svg">
<path d="M46.1261 23.2414C49.1119 24.5118 47.2454 29.0673 44.1841 27.8725C41.1983 26.6021 38.0614 26.006 34.8517 26.006C21.4116 26.006 11.8554 36.1637 11.8554 49.3125C11.9282 61.0427 19.769 72.4734 35.0756 72.4734C38.2853 72.4734 41.2711 71.7991 44.1841 70.6798C47.2454 69.4094 49.1119 74.0405 46.1261 75.2354C42.617 76.6568 38.8814 77.4039 35.0756 77.4039C16.4838 77.4039 7.07594 63.4324 7.00042 49.4636C6.9276 35.2682 16.2599 21.0755 35.0756 21.0755C38.8814 21.0755 42.617 21.8226 46.1261 23.2414ZM42.6898 60.2956C45.5273 58.8013 47.917 63.0602 45.004 64.6273C41.7944 66.4964 38.2853 67.3164 34.8517 67.2436C25.7406 67.0925 17.6787 60.3684 17.6787 49.3125C17.6787 33.925 32.9098 27.1253 45.004 33.925C47.917 35.4192 45.5273 39.8265 42.6898 38.1812C34.0291 33.4017 22.6064 37.6579 22.6064 49.3125C22.6064 57.5309 28.3542 62.0137 34.7762 62.2375C37.3898 62.3131 40.1518 61.7143 42.6898 60.2956ZM87.7871 72.023C89.2058 72.023 90.2496 73.145 90.2496 74.5638C90.2496 75.9097 89.2058 77.029 87.7871 77.029H58.7436C57.3248 77.029 56.2028 75.9097 56.2028 74.5638V24.5846C56.2028 23.2414 57.3248 22.1193 58.7436 22.1193C60.0868 22.1193 61.2061 23.2414 61.2061 24.5846V72.023H87.7871ZM66.2094 24.5846C66.2094 23.2414 67.3288 22.1193 68.672 22.1193C70.0907 22.1193 71.2127 23.2414 71.2127 24.5846V62.0137H87.7871C89.2058 62.0137 90.2496 63.133 90.2496 64.5544C90.2496 65.8976 89.2058 67.0197 87.7871 67.0197H68.672C67.3288 67.0197 66.2094 65.8976 66.2094 64.5544V24.5846ZM109.365 56.4844V24.5118C109.365 23.0903 110.484 21.971 111.827 21.971C113.246 21.971 114.365 23.0903 114.365 24.5118V56.4844C114.365 64.4034 125.939 64.4034 125.939 56.4844V24.5118C125.939 23.0903 126.983 21.971 128.477 21.971C129.82 21.971 130.942 23.0903 130.942 24.5118V56.4844C130.942 71.052 109.365 71.052 109.365 56.4844ZM141.095 57.0832C141.095 84.5003 99.1342 84.4247 99.1342 57.0832V24.5118C99.1342 23.0903 100.254 21.971 101.599 21.971C103.018 21.971 104.138 23.0903 104.138 24.5118V57.0832C104.138 78 136.167 78 136.167 57.0832V24.5118C136.167 23.0903 137.213 21.971 138.632 21.971C139.975 21.971 141.095 23.0903 141.095 24.5118V57.0832ZM197.838 74.4882C197.838 75.9097 196.719 77.029 195.3 77.029C193.882 77.029 192.762 75.9097 192.762 74.4882V50.9578L182.532 65.6738C181.712 66.7958 180.069 67.0925 178.95 66.3454C178.726 66.1215 178.502 65.8976 178.351 65.6738L168.123 50.9578V74.4882C168.123 75.9097 167.001 77.029 165.51 77.029C164.166 77.029 163.047 75.9097 163.047 74.4882V42.8878C163.047 42.1407 163.419 41.3207 164.091 40.873C165.21 40.0503 166.853 40.347 167.676 41.4691L180.369 59.8478L193.21 41.5446C193.658 40.873 194.405 40.4226 195.3 40.4226C196.719 40.4226 197.838 41.5446 197.838 42.8878V74.4882ZM157.968 74.4882C157.968 75.9097 156.849 77.029 155.43 77.029C154.012 77.029 152.892 75.9097 152.892 74.4882V23.8375C152.892 22.4187 154.012 21.2994 155.43 21.2994C156.849 21.2994 157.968 22.4187 157.968 23.8375V74.4882ZM207.993 74.4882C207.993 75.9097 206.871 77.029 205.38 77.029C204.037 77.029 202.915 75.9097 202.915 74.4882V23.8375C202.915 22.4187 204.037 21.2994 205.38 21.2994C206.871 21.2994 207.993 22.4187 207.993 23.8375V74.4882ZM194.181 22.3432C195.001 21.2239 196.568 20.9245 197.763 21.7471C198.885 22.5671 199.109 24.1368 198.362 25.2589L182.532 47.9693C181.712 49.1642 180.069 49.4636 178.95 48.5654C178.726 48.4171 178.502 48.1932 178.351 47.8938L162.524 25.2589C161.777 24.1368 162.001 22.5671 163.12 21.7471C164.239 20.9245 165.885 21.2239 166.705 22.3432L180.369 42.1407L194.181 22.3432ZM274.142 40.9458C274.517 42.2917 273.846 43.7105 272.5 44.0827C271.156 44.5331 269.665 43.786 269.29 42.4401C267.723 37.6579 264.734 33.5501 260.629 30.5616C256.748 27.797 251.893 26.0788 246.593 26.0788C215.459 26.0788 215.459 72.8456 246.593 72.8456C251.893 72.8456 256.748 71.203 260.629 68.3629C264.734 65.4499 267.723 61.3421 269.29 56.4844C269.665 55.1412 271.156 54.4669 272.5 54.8418C273.846 55.214 274.517 56.7083 274.142 58.0542C272.276 63.8801 268.543 68.9617 263.691 72.4734C258.838 75.9097 253.012 78 246.593 78C208.738 78 208.738 21 246.593 21C253.012 21 258.838 23.0175 263.691 26.4537C268.543 30.0383 272.276 35.0443 274.142 40.9458ZM231.214 58.5019C230.466 57.2315 230.914 55.8128 232.109 55.0657C233.377 54.3941 234.871 54.7663 235.543 56.0367C236.737 57.9787 238.38 59.6968 240.322 60.7433C242.113 61.8626 244.279 62.5369 246.593 62.5369C250.178 62.5369 253.387 61.1155 255.626 58.7258C258.016 56.4116 259.434 53.1237 259.434 49.4636C259.434 45.8763 258.016 42.5884 255.626 40.2742C253.387 37.9573 250.178 36.4631 246.593 36.4631C244.279 36.4631 242.188 37.0618 240.322 38.1812C238.38 39.3032 236.737 40.9458 235.543 42.8878C234.871 44.1582 233.377 44.6059 232.109 43.9343C230.914 43.2627 230.466 41.6929 231.214 40.4226C232.781 37.6579 235.019 35.3437 237.708 33.774C240.395 32.2042 243.456 31.3842 246.593 31.3842C251.596 31.3842 256.074 33.4017 259.362 36.6869C262.496 39.9748 264.513 44.4576 264.513 49.4636C264.513 54.4669 262.496 58.9497 259.362 62.2375C256.074 65.5983 251.596 67.6158 246.593 67.6158C243.456 67.6158 240.395 66.7203 237.708 65.226C235.019 63.5834 232.781 61.2666 231.214 58.5019ZM312.297 24.0613C315.356 25.1078 313.716 29.89 310.579 28.7679C303.857 26.3782 295.795 25.1078 290.868 30.5616C286.835 34.8205 285.791 42.6639 291.167 47.295C297.662 53.1237 306.921 51.8533 307.442 59.7723C307.666 63.9557 304.008 67.0197 299.976 67.3164C295.124 67.6158 289.074 66.4209 284.149 62.8363C281.535 60.9672 284.448 56.9321 287.059 58.8013C292.81 62.9847 302.889 63.7318 302.441 59.9962C302.142 56.4844 294.749 57.0832 287.806 51.0307C276.98 41.5446 283.55 22.6426 298.932 21.8955C303.41 21.6716 307.07 22.2704 312.297 24.0613ZM283.178 73.4444C280.34 71.9502 282.655 67.5429 285.565 69.0372C297.063 75.1625 312.669 73.5928 312.669 59.7723C312.669 49.5364 299.229 47.6699 295.421 44.6059C289.449 39.8993 292.583 26.6776 311.175 34.2217C314.088 35.4192 312.297 40.0503 309.236 38.78C297.961 34.2217 296.019 38.8555 298.482 40.7975C301.246 42.8878 317.597 45.8763 317.597 59.7723C317.597 73.4444 305.5 79.8692 291.539 76.5057C289.001 75.9825 286.088 75.0115 283.178 73.4444ZM354.554 24.0613C357.615 25.1078 355.973 29.89 352.839 28.7679C346.117 26.3782 338.055 25.1078 333.127 30.5616C329.095 34.8205 328.049 42.6639 333.424 47.295C339.922 53.1237 349.178 51.8533 349.702 59.7723C349.926 63.9557 346.266 67.0197 342.236 67.3164C337.384 67.6158 331.334 66.4209 326.406 62.8363C323.792 60.9672 326.705 56.9321 329.319 58.8013C335.067 62.9847 345.146 63.7318 344.698 59.9962C344.399 56.4844 337.009 57.0832 330.066 51.0307C319.24 41.5446 325.81 22.6426 341.189 21.8955C345.669 21.6716 349.33 22.2704 354.554 24.0613ZM325.435 73.4444C322.6 71.9502 324.914 67.5429 327.825 69.0372C339.323 75.1625 354.929 73.5928 354.929 59.7723C354.929 49.5364 341.489 47.6699 337.68 44.6059C331.709 39.8993 334.843 26.6776 353.435 34.2217C356.348 35.4192 354.554 40.0503 351.493 38.78C340.218 34.2217 338.279 38.8555 340.742 40.7975C343.504 42.8878 359.857 45.8763 359.857 59.7723C359.857 73.4444 347.76 79.8692 333.799 76.5057C331.261 75.9825 328.348 75.0115 325.435 73.4444Z" fill="white"/>
<path d="M46.1261 23.2414C49.1119 24.5118 47.2454 29.0673 44.1841 27.8725C41.1983 26.6021 38.0614 26.006 34.8517 26.006C21.4116 26.006 11.8554 36.1637 11.8554 49.3125C11.9282 61.0427 19.769 72.4734 35.0756 72.4734C38.2853 72.4734 41.2711 71.7991 44.1841 70.6798C47.2454 69.4094 49.1119 74.0405 46.1261 75.2354C42.617 76.6568 38.8814 77.4039 35.0756 77.4039C16.4838 77.4039 7.07594 63.4324 7.00042 49.4636C6.9276 35.2682 16.2599 21.0755 35.0756 21.0755C38.8814 21.0755 42.617 21.8226 46.1261 23.2414ZM42.6898 60.2956C45.5273 58.8013 47.917 63.0602 45.004 64.6273C41.7944 66.4964 38.2853 67.3164 34.8517 67.2436C25.7406 67.0925 17.6787 60.3684 17.6787 49.3125C17.6787 33.925 32.9098 27.1253 45.004 33.925C47.917 35.4192 45.5273 39.8265 42.6898 38.1812C34.0291 33.4017 22.6064 37.6579 22.6064 49.3125C22.6064 57.5309 28.3542 62.0137 34.7762 62.2375C37.3898 62.3131 40.1518 61.7143 42.6898 60.2956ZM87.7871 72.023C89.2058 72.023 90.2496 73.145 90.2496 74.5638C90.2496 75.9097 89.2058 77.029 87.7871 77.029H58.7436C57.3248 77.029 56.2028 75.9097 56.2028 74.5638V24.5846C56.2028 23.2414 57.3248 22.1193 58.7436 22.1193C60.0868 22.1193 61.2061 23.2414 61.2061 24.5846V72.023H87.7871ZM66.2094 24.5846C66.2094 23.2414 67.3288 22.1193 68.672 22.1193C70.0907 22.1193 71.2127 23.2414 71.2127 24.5846V62.0137H87.7871C89.2058 62.0137 90.2496 63.133 90.2496 64.5544C90.2496 65.8976 89.2058 67.0197 87.7871 67.0197H68.672C67.3288 67.0197 66.2094 65.8976 66.2094 64.5544V24.5846ZM109.365 56.4844V24.5118C109.365 23.0903 110.484 21.971 111.827 21.971C113.246 21.971 114.365 23.0903 114.365 24.5118V56.4844C114.365 64.4034 125.939 64.4034 125.939 56.4844V24.5118C125.939 23.0903 126.983 21.971 128.477 21.971C129.82 21.971 130.942 23.0903 130.942 24.5118V56.4844C130.942 71.052 109.365 71.052 109.365 56.4844ZM141.095 57.0832C141.095 84.5003 99.1342 84.4247 99.1342 57.0832V24.5118C99.1342 23.0903 100.254 21.971 101.599 21.971C103.018 21.971 104.138 23.0903 104.138 24.5118V57.0832C104.138 78 136.167 78 136.167 57.0832V24.5118C136.167 23.0903 137.213 21.971 138.632 21.971C139.975 21.971 141.095 23.0903 141.095 24.5118V57.0832ZM197.838 74.4882C197.838 75.9097 196.719 77.029 195.3 77.029C193.882 77.029 192.762 75.9097 192.762 74.4882V50.9578L182.532 65.6738C181.712 66.7958 180.069 67.0925 178.95 66.3454C178.726 66.1215 178.502 65.8976 178.351 65.6738L168.123 50.9578V74.4882C168.123 75.9097 167.001 77.029 165.51 77.029C164.166 77.029 163.047 75.9097 163.047 74.4882V42.8878C163.047 42.1407 163.419 41.3207 164.091 40.873C165.21 40.0503 166.853 40.347 167.676 41.4691L180.369 59.8478L193.21 41.5446C193.658 40.873 194.405 40.4226 195.3 40.4226C196.719 40.4226 197.838 41.5446 197.838 42.8878V74.4882ZM157.968 74.4882C157.968 75.9097 156.849 77.029 155.43 77.029C154.012 77.029 152.892 75.9097 152.892 74.4882V23.8375C152.892 22.4187 154.012 21.2994 155.43 21.2994C156.849 21.2994 157.968 22.4187 157.968 23.8375V74.4882ZM207.993 74.4882C207.993 75.9097 206.871 77.029 205.38 77.029C204.037 77.029 202.915 75.9097 202.915 74.4882V23.8375C202.915 22.4187 204.037 21.2994 205.38 21.2994C206.871 21.2994 207.993 22.4187 207.993 23.8375V74.4882ZM194.181 22.3432C195.001 21.2239 196.568 20.9245 197.763 21.7471C198.885 22.5671 199.109 24.1368 198.362 25.2589L182.532 47.9693C181.712 49.1642 180.069 49.4636 178.95 48.5654C178.726 48.4171 178.502 48.1932 178.351 47.8938L162.524 25.2589C161.777 24.1368 162.001 22.5671 163.12 21.7471C164.239 20.9245 165.885 21.2239 166.705 22.3432L180.369 42.1407L194.181 22.3432ZM274.142 40.9458C274.517 42.2917 273.846 43.7105 272.5 44.0827C271.156 44.5331 269.665 43.786 269.29 42.4401C267.723 37.6579 264.734 33.5501 260.629 30.5616C256.748 27.797 251.893 26.0788 246.593 26.0788C215.459 26.0788 215.459 72.8456 246.593 72.8456C251.893 72.8456 256.748 71.203 260.629 68.3629C264.734 65.4499 267.723 61.3421 269.29 56.4844C269.665 55.1412 271.156 54.4669 272.5 54.8418C273.846 55.214 274.517 56.7083 274.142 58.0542C272.276 63.8801 268.543 68.9617 263.691 72.4734C258.838 75.9097 253.012 78 246.593 78C208.738 78 208.738 21 246.593 21C253.012 21 258.838 23.0175 263.691 26.4537C268.543 30.0383 272.276 35.0443 274.142 40.9458ZM231.214 58.5019C230.466 57.2315 230.914 55.8128 232.109 55.0657C233.377 54.3941 234.871 54.7663 235.543 56.0367C236.737 57.9787 238.38 59.6968 240.322 60.7433C242.113 61.8626 244.279 62.5369 246.593 62.5369C250.178 62.5369 253.387 61.1155 255.626 58.7258C258.016 56.4116 259.434 53.1237 259.434 49.4636C259.434 45.8763 258.016 42.5884 255.626 40.2742C253.387 37.9573 250.178 36.4631 246.593 36.4631C244.279 36.4631 242.188 37.0618 240.322 38.1812C238.38 39.3032 236.737 40.9458 235.543 42.8878C234.871 44.1582 233.377 44.6059 232.109 43.9343C230.914 43.2627 230.466 41.6929 231.214 40.4226C232.781 37.6579 235.019 35.3437 237.708 33.774C240.395 32.2042 243.456 31.3842 246.593 31.3842C251.596 31.3842 256.074 33.4017 259.362 36.6869C262.496 39.9748 264.513 44.4576 264.513 49.4636C264.513 54.4669 262.496 58.9497 259.362 62.2375C256.074 65.5983 251.596 67.6158 246.593 67.6158C243.456 67.6158 240.395 66.7203 237.708 65.226C235.019 63.5834 232.781 61.2666 231.214 58.5019ZM312.297 24.0613C315.356 25.1078 313.716 29.89 310.579 28.7679C303.857 26.3782 295.795 25.1078 290.868 30.5616C286.835 34.8205 285.791 42.6639 291.167 47.295C297.662 53.1237 306.921 51.8533 307.442 59.7723C307.666 63.9557 304.008 67.0197 299.976 67.3164C295.124 67.6158 289.074 66.4209 284.149 62.8363C281.535 60.9672 284.448 56.9321 287.059 58.8013C292.81 62.9847 302.889 63.7318 302.441 59.9962C302.142 56.4844 294.749 57.0832 287.806 51.0307C276.98 41.5446 283.55 22.6426 298.932 21.8955C303.41 21.6716 307.07 22.2704 312.297 24.0613ZM283.178 73.4444C280.34 71.9502 282.655 67.5429 285.565 69.0372C297.063 75.1625 312.669 73.5928 312.669 59.7723C312.669 49.5364 299.229 47.6699 295.421 44.6059C289.449 39.8993 292.583 26.6776 311.175 34.2217C314.088 35.4192 312.297 40.0503 309.236 38.78C297.961 34.2217 296.019 38.8555 298.482 40.7975C301.246 42.8878 317.597 45.8763 317.597 59.7723C317.597 73.4444 305.5 79.8692 291.539 76.5057C289.001 75.9825 286.088 75.0115 283.178 73.4444ZM354.554 24.0613C357.615 25.1078 355.973 29.89 352.839 28.7679C346.117 26.3782 338.055 25.1078 333.127 30.5616C329.095 34.8205 328.049 42.6639 333.424 47.295C339.922 53.1237 349.178 51.8533 349.702 59.7723C349.926 63.9557 346.266 67.0197 342.236 67.3164C337.384 67.6158 331.334 66.4209 326.406 62.8363C323.792 60.9672 326.705 56.9321 329.319 58.8013C335.067 62.9847 345.146 63.7318 344.698 59.9962C344.399 56.4844 337.009 57.0832 330.066 51.0307C319.24 41.5446 325.81 22.6426 341.189 21.8955C345.669 21.6716 349.33 22.2704 354.554 24.0613ZM325.435 73.4444C322.6 71.9502 324.914 67.5429 327.825 69.0372C339.323 75.1625 354.929 73.5928 354.929 59.7723C354.929 49.5364 341.489 47.6699 337.68 44.6059C331.709 39.8993 334.843 26.6776 353.435 34.2217C356.348 35.4192 354.554 40.0503 351.493 38.78C340.218 34.2217 338.279 38.8555 340.742 40.7975C343.504 42.8878 359.857 45.8763 359.857 59.7723C359.857 73.4444 347.76 79.8692 333.799 76.5057C331.261 75.9825 328.348 75.0115 325.435 73.4444Z" fill="white"/>
</svg>
