<svg width="1080" height="1080" viewBox="0 0 1080 1080" fill="none" xmlns="http://www.w3.org/2000/svg">
<path d="M898.22 44.2574C955.166 68.4569 919.569 155.236 861.182 132.475C804.236 108.276 744.41 96.9209 683.194 96.9209C426.861 96.9209 244.603 290.414 244.603 540.887C245.992 764.335 395.533 982.079 687.464 982.079C748.679 982.079 805.625 969.234 861.182 947.912C919.569 923.713 955.166 1011.93 898.22 1034.69C831.295 1061.77 760.048 1076 687.464 1076C332.877 1076 153.448 809.857 152.008 543.764C150.619 273.357 328.607 3 687.464 3C760.048 3 831.295 17.232 898.22 44.2574ZM832.684 750.103C886.8 721.639 932.377 802.766 876.821 832.617C815.605 868.223 748.679 883.842 683.194 882.455C509.424 879.578 355.665 751.49 355.665 540.887C355.665 247.77 646.156 118.243 876.821 247.77C932.377 276.234 886.8 360.187 832.684 328.846C667.505 237.802 449.649 318.878 449.649 540.887C449.649 697.439 559.271 782.831 681.754 787.096C731.601 788.534 784.277 777.128 832.684 750.103Z" fill="#513DE8"/>
<path d="M898.22 44.2574C955.166 68.4569 919.569 155.236 861.182 132.475C804.236 108.276 744.41 96.9209 683.194 96.9209C426.861 96.9209 244.603 290.414 244.603 540.887C245.992 764.335 395.533 982.079 687.464 982.079C748.679 982.079 805.625 969.234 861.182 947.912C919.569 923.713 955.166 1011.93 898.22 1034.69C831.295 1061.77 760.048 1076 687.464 1076C332.877 1076 153.448 809.857 152.008 543.764C150.619 273.357 328.607 3 687.464 3C760.048 3 831.295 17.232 898.22 44.2574ZM832.684 750.103C886.8 721.639 932.377 802.766 876.821 832.617C815.605 868.223 748.679 883.842 683.194 882.455C509.424 879.578 355.665 751.49 355.665 540.887C355.665 247.77 646.156 118.243 876.821 247.77C932.377 276.234 886.8 360.187 832.684 328.846C667.505 237.802 449.649 318.878 449.649 540.887C449.649 697.439 559.271 782.831 681.754 787.096C731.601 788.534 784.277 777.128 832.684 750.103Z" fill="#513DE8"/>
</svg>
