<svg xmlns="http://www.w3.org/2000/svg" width="462" height="125" viewBox="0 0 462 125" fill="none"><path d="M23.4794 8.92344C23.6164 8.92344 23.7274 8.81241 23.7274 8.67546C23.7274 8.5385 23.6164 8.42749 23.4794 8.42749C23.3425 8.42749 23.2314 8.5385 23.2314 8.67546C23.2314 8.81241 23.3425 8.92344 23.4794 8.92344Z" fill="#FFB700"></path><path d="M46.5419 9.54538C47.0388 9.54538 47.4529 9.13129 47.4529 8.63439C47.4529 8.13748 47.0388 7.72339 46.5419 7.72339C46.045 7.72339 45.6309 8.13748 45.6309 8.63439C45.6309 9.13129 46.045 9.54538 46.5419 9.54538Z" fill="#FFB700"></path><path d="M69.5653 10.2083C70.4115 10.2083 71.0974 9.52233 71.0974 8.67616C71.0974 7.82999 70.4115 7.14404 69.5653 7.14404C68.7191 7.14404 68.0332 7.82999 68.0332 8.67616C68.0332 9.52233 68.7191 10.2083 69.5653 10.2083Z" fill="#FFB700"></path><path d="M92.5896 10.8295C93.7905 10.8295 94.7428 9.87706 94.7428 8.67621C94.7428 7.47535 93.7905 6.52295 92.5896 6.52295C91.3888 6.52295 90.4363 7.47535 90.4363 8.67621C90.4363 9.87706 91.3888 10.8295 92.5896 10.8295Z" fill="#FFB700"></path><path d="M115.612 11.4092C117.121 11.4092 118.345 10.1856 118.345 8.67621C118.345 7.16683 117.121 5.94324 115.612 5.94324C114.103 5.94324 112.879 7.16683 112.879 8.67621C112.879 10.1856 114.103 11.4092 115.612 11.4092Z" fill="#FFB700"></path><path d="M138.679 11.9057C140.459 11.9057 141.95 10.4564 141.95 8.63445C141.95 6.81247 140.501 5.36316 138.679 5.36316C136.857 5.36316 135.407 6.81247 135.407 8.63445C135.407 10.4564 136.857 11.9057 138.679 11.9057Z" fill="#FFB700"></path><path d="M161.7 12.4443C163.771 12.4443 165.468 10.7466 165.468 8.67615C165.468 6.60572 163.771 4.90796 161.7 4.90796C159.63 4.90796 157.932 6.60572 157.932 8.67615C157.932 10.7466 159.63 12.4443 161.7 12.4443Z" fill="#FFB700"></path><path d="M184.724 12.7758C186.988 12.7758 188.824 10.9404 188.824 8.67636C188.824 6.41229 186.988 4.5769 184.724 4.5769C182.46 4.5769 180.625 6.41229 180.625 8.67636C180.625 10.9404 182.46 12.7758 184.724 12.7758Z" fill="#FFB700"></path><path d="M207.747 12.9824C210.149 12.9824 212.095 11.0362 212.095 8.63453C212.095 6.23283 210.149 4.28662 207.747 4.28662C205.346 4.28662 203.399 6.23283 203.399 8.63453C203.399 11.0362 205.346 12.9824 207.747 12.9824Z" fill="#FFB700"></path><path d="M230.811 13.0653C233.235 13.0653 235.201 11.1001 235.201 8.67594C235.201 6.25178 233.235 4.28662 230.811 4.28662C228.387 4.28662 226.422 6.25178 226.422 8.67594C226.422 11.1001 228.387 13.0653 230.811 13.0653Z" fill="#FFB700"></path><path d="M253.836 13.0237C256.238 13.0237 258.184 11.0771 258.184 8.67579C258.184 6.27451 256.238 4.32788 253.836 4.32788C251.435 4.32788 249.488 6.27451 249.488 8.67579C249.488 11.0771 251.435 13.0237 253.836 13.0237Z" fill="#FFB700"></path><path d="M276.859 12.7758C279.123 12.7758 280.959 10.9404 280.959 8.67636C280.959 6.41229 279.123 4.5769 276.859 4.5769C274.595 4.5769 272.76 6.41229 272.76 8.67636C272.76 10.9404 274.595 12.7758 276.859 12.7758Z" fill="#FFB700"></path><path d="M299.881 12.4443C301.951 12.4443 303.649 10.7466 303.649 8.67615C303.649 6.60572 301.951 4.90796 299.881 4.90796C297.81 4.90796 296.112 6.60572 296.112 8.67615C296.112 10.7466 297.81 12.4443 299.881 12.4443Z" fill="#FFB700"></path><path d="M322.948 11.9887C324.777 11.9887 326.26 10.5055 326.26 8.67598C326.26 6.84642 324.777 5.36328 322.948 5.36328C321.118 5.36328 319.635 6.84642 319.635 8.67598C319.635 10.5055 321.118 11.9887 322.948 11.9887Z" fill="#FFB700"></path><path d="M345.971 11.4918C347.526 11.4918 348.787 10.2311 348.787 8.67602C348.787 7.1209 347.526 5.86023 345.971 5.86023C344.416 5.86023 343.155 7.1209 343.155 8.67602C343.155 10.2311 344.416 11.4918 345.971 11.4918Z" fill="#FFB700"></path><path d="M368.995 10.9121C370.237 10.9121 371.231 9.91826 371.231 8.676C371.231 7.43374 370.237 6.43994 368.995 6.43994C367.753 6.43994 366.759 7.43374 366.759 8.676C366.759 9.91826 367.753 10.9121 368.995 10.9121Z" fill="#FFB700"></path><path d="M392.017 10.2909C392.909 10.2909 393.632 9.56788 393.632 8.67597C393.632 7.78407 392.909 7.06104 392.017 7.06104C391.125 7.06104 390.402 7.78407 390.402 8.67597C390.402 9.56788 391.125 10.2909 392.017 10.2909Z" fill="#FFB700"></path><path d="M415.08 9.62819C415.619 9.62819 416.033 9.2141 416.033 8.67579C416.033 8.13747 415.619 7.72339 415.08 7.72339C414.542 7.72339 414.128 8.13747 414.128 8.67579C414.128 9.2141 414.542 9.62819 415.08 9.62819Z" fill="#FFB700"></path><path d="M438.105 8.92344C438.242 8.92344 438.353 8.81241 438.353 8.67546C438.353 8.5385 438.242 8.42749 438.105 8.42749C437.968 8.42749 437.857 8.5385 437.857 8.67546C437.857 8.81241 437.968 8.92344 438.105 8.92344Z" fill="#FFB700"></path><path d="M23.4801 31.7403C23.4801 31.7403 23.5627 31.7403 23.5627 31.6576C23.5627 31.575 23.5627 31.575 23.4801 31.575C23.3974 31.575 23.3975 31.575 23.3975 31.6576C23.3975 31.7403 23.3974 31.7403 23.4801 31.7403Z" fill="#FFB700"></path><path d="M46.5425 32.1546C46.794 32.1546 46.9979 31.9507 46.9979 31.6992C46.9979 31.4476 46.794 31.2437 46.5425 31.2437C46.2909 31.2437 46.0869 31.4476 46.0869 31.6992C46.0869 31.9507 46.2909 32.1546 46.5425 32.1546Z" fill="#FFB700"></path><path d="M69.5659 32.7756C70.1456 32.7756 70.6425 32.2787 70.6425 31.6989C70.6425 31.1192 70.1456 30.6223 69.5659 30.6223C68.9862 30.6223 68.4893 31.1192 68.4893 31.6989C68.4893 32.2787 68.9862 32.7756 69.5659 32.7756Z" fill="#FFB700"></path><path d="M92.5897 33.3554C93.5007 33.3554 94.246 32.6101 94.246 31.6991C94.246 30.7881 93.5007 30.0427 92.5897 30.0427C91.6787 30.0427 90.9333 30.7881 90.9333 31.6991C90.9333 32.6101 91.6787 33.3554 92.5897 33.3554Z" fill="#FFB700"></path><path d="M115.615 33.8524C116.816 33.8524 117.768 32.9 117.768 31.6992C117.768 30.4983 116.816 29.5459 115.615 29.5459C114.414 29.5459 113.462 30.4983 113.462 31.6992C113.462 32.9 114.414 33.8524 115.615 33.8524Z" fill="#FFB700"></path><path d="M138.68 34.3078C140.121 34.3078 141.289 33.1399 141.289 31.6991C141.289 30.2583 140.121 29.0903 138.68 29.0903C137.239 29.0903 136.071 30.2583 136.071 31.6991C136.071 33.1399 137.239 34.3078 138.68 34.3078Z" fill="#FFB700"></path><path d="M161.699 34.7635C163.391 34.7635 164.763 33.3916 164.763 31.6993C164.763 30.0069 163.391 28.635 161.699 28.635C160.007 28.635 158.635 30.0069 158.635 31.6993C158.635 33.3916 160.007 34.7635 161.699 34.7635Z" fill="#FFB700"></path><path d="M184.722 35.0121C186.552 35.0121 188.035 33.529 188.035 31.6994C188.035 29.8699 186.552 28.3867 184.722 28.3867C182.892 28.3867 181.409 29.8699 181.409 31.6994C181.409 33.529 182.892 35.0121 184.722 35.0121Z" fill="#FFB700"></path><path d="M207.747 35.2605C209.714 35.2605 211.308 33.6661 211.308 31.6993C211.308 29.7326 209.714 28.1382 207.747 28.1382C205.78 28.1382 204.186 29.7326 204.186 31.6993C204.186 33.6661 205.78 35.2605 207.747 35.2605Z" fill="#FFB700"></path><path d="M230.814 35.3431C232.826 35.3431 234.458 33.7117 234.458 31.6991C234.458 29.6866 232.826 28.0552 230.814 28.0552C228.801 28.0552 227.17 29.6866 227.17 31.6991C227.17 33.7117 228.801 35.3431 230.814 35.3431Z" fill="#FFB700"></path><path d="M253.837 35.2605C255.803 35.2605 257.398 33.6661 257.398 31.6993C257.398 29.7326 255.803 28.1382 253.837 28.1382C251.87 28.1382 250.275 29.7326 250.275 31.6993C250.275 33.6661 251.87 35.2605 253.837 35.2605Z" fill="#FFB700"></path><path d="M276.859 35.095C278.735 35.095 280.255 33.5748 280.255 31.6995C280.255 29.8242 278.735 28.304 276.859 28.304C274.984 28.304 273.464 29.8242 273.464 31.6995C273.464 33.5748 274.984 35.095 276.859 35.095Z" fill="#FFB700"></path><path d="M299.881 34.7635C301.578 34.7635 302.945 33.397 302.945 31.6993C302.945 30.0015 301.578 28.635 299.881 28.635C298.183 28.635 296.816 30.0015 296.816 31.6993C296.816 33.397 298.183 34.7635 299.881 34.7635Z" fill="#FFB700"></path><path d="M322.946 34.3905C324.436 34.3905 325.637 33.1896 325.637 31.6989C325.637 30.2082 324.436 29.0073 322.946 29.0073C321.455 29.0073 320.254 30.2082 320.254 31.6989C320.254 33.1896 321.455 34.3905 322.946 34.3905Z" fill="#FFB700"></path><path d="M345.97 33.935C347.212 33.935 348.205 32.9412 348.205 31.699C348.205 30.4567 347.212 29.4629 345.97 29.4629C344.727 29.4629 343.733 30.4567 343.733 31.699C343.733 32.9412 344.727 33.935 345.97 33.935Z" fill="#FFB700"></path><path d="M368.992 33.3554C369.903 33.3554 370.649 32.6101 370.649 31.6991C370.649 30.7881 369.903 30.0427 368.992 30.0427C368.081 30.0427 367.336 30.7881 367.336 31.6991C367.336 32.6101 368.081 33.3554 368.992 33.3554Z" fill="#FFB700"></path><path d="M392.018 32.7756C392.613 32.7756 393.095 32.2935 393.095 31.6989C393.095 31.1043 392.613 30.6223 392.018 30.6223C391.423 30.6223 390.941 31.1043 390.941 31.6989C390.941 32.2935 391.423 32.7756 392.018 32.7756Z" fill="#FFB700"></path><path d="M415.082 32.1962C415.356 32.1962 415.579 31.9737 415.579 31.6993C415.579 31.4249 415.356 31.2024 415.082 31.2024C414.807 31.2024 414.585 31.4249 414.585 31.6993C414.585 31.9737 414.807 32.1962 415.082 32.1962Z" fill="#FFB700"></path><path d="M438.106 31.7403C438.106 31.7403 438.189 31.7403 438.189 31.6576C438.189 31.575 438.189 31.575 438.106 31.575C438.024 31.575 438.023 31.575 438.023 31.6576C438.023 31.7403 438.024 31.7403 438.106 31.7403Z" fill="#FFB700"></path><path d="M46.5427 54.8052C46.5427 54.8052 46.6253 54.8052 46.6253 54.7226C46.6253 54.6399 46.6254 54.6399 46.5427 54.6399C46.46 54.6399 46.46 54.6399 46.46 54.7226C46.46 54.8052 46.46 54.8052 46.5427 54.8052Z" fill="#FFB700"></path><path d="M69.5681 55.3025C69.8993 55.3025 70.1477 55.0541 70.1477 54.7228C70.1477 54.3915 69.8993 54.1431 69.5681 54.1431C69.2368 54.1431 68.9883 54.3915 68.9883 54.7228C68.9883 55.0541 69.2368 55.3025 69.5681 55.3025Z" fill="#FFB700"></path><path d="M92.5884 55.7993C93.1681 55.7993 93.6651 55.3024 93.6651 54.7226C93.6651 54.1429 93.1681 53.646 92.5884 53.646C92.0087 53.646 91.5117 54.1429 91.5117 54.7226C91.5117 55.3024 92.0087 55.7993 92.5884 55.7993Z" fill="#FFB700"></path><path d="M115.613 56.2547C116.441 56.2547 117.145 55.5507 117.145 54.7226C117.145 53.8944 116.441 53.1904 115.613 53.1904C114.785 53.1904 114.081 53.8944 114.081 54.7226C114.081 55.5507 114.785 56.2547 115.613 56.2547Z" fill="#FFB700"></path><path d="M138.677 56.7099C139.754 56.7099 140.665 55.8403 140.665 54.7223C140.665 53.6042 139.795 52.7346 138.677 52.7346C137.559 52.7346 136.689 53.6042 136.689 54.7223C136.689 55.8403 137.559 56.7099 138.677 56.7099Z" fill="#FFB700"></path><path d="M161.702 57.0829C163.027 57.0829 164.062 56.0063 164.062 54.7226C164.062 53.4389 162.986 52.3623 161.702 52.3623C160.418 52.3623 159.342 53.4389 159.342 54.7226C159.342 56.0063 160.418 57.0829 161.702 57.0829Z" fill="#FFB700"></path><path d="M184.727 57.3315C186.176 57.3315 187.336 56.1721 187.336 54.7228C187.336 53.2735 186.176 52.114 184.727 52.114C183.278 52.114 182.118 53.2735 182.118 54.7228C182.118 56.1721 183.278 57.3315 184.727 57.3315Z" fill="#FFB700"></path><path d="M207.747 57.4557C209.279 57.4557 210.48 56.2134 210.48 54.7227C210.48 53.232 209.237 51.9897 207.747 51.9897C206.256 51.9897 205.014 53.232 205.014 54.7227C205.014 56.2134 206.256 57.4557 207.747 57.4557Z" fill="#FFB700"></path><path d="M230.811 57.5383C232.343 57.5383 233.627 56.2961 233.627 54.7225C233.627 53.149 232.385 51.9067 230.811 51.9067C229.237 51.9067 227.995 53.149 227.995 54.7225C227.995 56.2961 229.237 57.5383 230.811 57.5383Z" fill="#FFB700"></path><path d="M253.836 57.5383C255.368 57.5383 256.652 56.2961 256.652 54.7225C256.652 53.149 255.41 51.9067 253.836 51.9067C252.263 51.9067 251.021 53.149 251.021 54.7225C251.021 56.2961 252.263 57.5383 253.836 57.5383Z" fill="#FFB700"></path><path d="M276.86 57.3315C278.31 57.3315 279.469 56.1721 279.469 54.7228C279.469 53.2735 278.31 52.114 276.86 52.114C275.411 52.114 274.252 53.2735 274.252 54.7228C274.252 56.1721 275.411 57.3315 276.86 57.3315Z" fill="#FFB700"></path><path d="M299.88 57.0829C301.205 57.0829 302.24 56.0063 302.24 54.7226C302.24 53.4389 301.164 52.3623 299.88 52.3623C298.596 52.3623 297.52 53.4389 297.52 54.7226C297.52 56.0063 298.596 57.0829 299.88 57.0829Z" fill="#FFB700"></path><path d="M322.947 56.7517C324.065 56.7517 324.976 55.8407 324.976 54.7226C324.976 53.6046 324.065 52.6936 322.947 52.6936C321.829 52.6936 320.918 53.6046 320.918 54.7226C320.918 55.8407 321.829 56.7517 322.947 56.7517Z" fill="#FFB700"></path><path d="M345.97 56.3378C346.84 56.3378 347.585 55.6339 347.585 54.7229C347.585 53.8119 346.881 53.1079 345.97 53.1079C345.059 53.1079 344.355 53.8119 344.355 54.7229C344.355 55.6339 345.059 56.3378 345.97 56.3378Z" fill="#FFB700"></path><path d="M368.993 55.7993C369.572 55.7993 370.069 55.3024 370.069 54.7226C370.069 54.1429 369.572 53.646 368.993 53.646C368.413 53.646 367.916 54.1429 367.916 54.7226C367.916 55.3024 368.413 55.7993 368.993 55.7993Z" fill="#FFB700"></path><path d="M392.018 55.3025C392.35 55.3025 392.598 55.0541 392.598 54.7228C392.598 54.3915 392.35 54.1431 392.018 54.1431C391.687 54.1431 391.438 54.3915 391.438 54.7228C391.438 55.0541 391.687 55.3025 392.018 55.3025Z" fill="#FFB700"></path><path d="M415.081 54.8464C415.081 54.8464 415.205 54.805 415.205 54.7224C415.205 54.6397 415.164 54.5984 415.081 54.5984C414.998 54.5984 414.957 54.6397 414.957 54.7224C414.957 54.805 414.998 54.8464 415.081 54.8464Z" fill="#FFB700"></path><path d="M69.5681 77.8279C69.5681 77.8279 69.6507 77.8279 69.6507 77.7453C69.6507 77.6626 69.6507 77.6626 69.5681 77.6626C69.4854 77.6626 69.4854 77.6626 69.4854 77.7453C69.4854 77.8279 69.4854 77.8279 69.5681 77.8279Z" fill="#FFB700"></path><path d="M92.5896 78.2013C92.838 78.2013 93.045 77.9942 93.045 77.7458C93.045 77.4973 92.838 77.2903 92.5896 77.2903C92.3411 77.2903 92.134 77.4973 92.134 77.7458C92.134 77.9942 92.3411 78.2013 92.5896 78.2013Z" fill="#FFB700"></path><path d="M115.614 78.6567C116.111 78.6567 116.525 78.2426 116.525 77.7457C116.525 77.2488 116.111 76.8347 115.614 76.8347C115.117 76.8347 114.703 77.2488 114.703 77.7457C114.703 78.2426 115.117 78.6567 115.614 78.6567Z" fill="#FFB700"></path><path d="M138.677 79.0295C139.386 79.0295 139.961 78.4548 139.961 77.7458C139.961 77.0369 139.386 76.4622 138.677 76.4622C137.968 76.4622 137.394 77.0369 137.394 77.7458C137.394 78.4548 137.968 79.0295 138.677 79.0295Z" fill="#FFB700"></path><path d="M161.702 79.3607C162.571 79.3607 163.317 78.6568 163.317 77.7458C163.317 76.8348 162.613 76.1309 161.702 76.1309C160.791 76.1309 160.087 76.8348 160.087 77.7458C160.087 78.6568 160.791 79.3607 161.702 79.3607Z" fill="#FFB700"></path><path d="M184.725 79.6094C185.754 79.6094 186.588 78.7751 186.588 77.746C186.588 76.7168 185.754 75.8826 184.725 75.8826C183.696 75.8826 182.861 76.7168 182.861 77.746C182.861 78.7751 183.696 79.6094 184.725 79.6094Z" fill="#FFB700"></path><path d="M207.749 79.7335C208.826 79.7335 209.737 78.864 209.737 77.7459C209.737 76.6279 208.867 75.7583 207.749 75.7583C206.631 75.7583 205.762 76.6279 205.762 77.7459C205.762 78.864 206.631 79.7335 207.749 79.7335Z" fill="#FFB700"></path><path d="M230.813 79.7746C231.934 79.7746 232.842 78.8662 232.842 77.7456C232.842 76.625 231.934 75.7166 230.813 75.7166C229.693 75.7166 228.784 76.625 228.784 77.7456C228.784 78.8662 229.693 79.7746 230.813 79.7746Z" fill="#FFB700"></path><path d="M253.834 79.7746C254.954 79.7746 255.863 78.8662 255.863 77.7456C255.863 76.625 254.954 75.7166 253.834 75.7166C252.713 75.7166 251.805 76.625 251.805 77.7456C251.805 78.8662 252.713 79.7746 253.834 79.7746Z" fill="#FFB700"></path><path d="M276.86 79.6094C277.889 79.6094 278.723 78.7751 278.723 77.746C278.723 76.7168 277.889 75.8826 276.86 75.8826C275.83 75.8826 274.996 76.7168 274.996 77.746C274.996 78.7751 275.83 79.6094 276.86 79.6094Z" fill="#FFB700"></path><path d="M299.883 79.3607C300.752 79.3607 301.497 78.6568 301.497 77.7458C301.497 76.8348 300.794 76.1309 299.883 76.1309C298.972 76.1309 298.268 76.8348 298.268 77.7458C298.268 78.6568 298.972 79.3607 299.883 79.3607Z" fill="#FFB700"></path><path d="M322.946 79.0711C323.678 79.0711 324.271 78.4778 324.271 77.746C324.271 77.0142 323.678 76.4209 322.946 76.4209C322.214 76.4209 321.621 77.0142 321.621 77.746C321.621 78.4778 322.214 79.0711 322.946 79.0711Z" fill="#FFB700"></path><path d="M345.972 78.6983C346.51 78.6983 346.924 78.2842 346.924 77.7459C346.924 77.2075 346.51 76.7935 345.972 76.7935C345.433 76.7935 345.019 77.2075 345.019 77.7459C345.019 78.2842 345.433 78.6983 345.972 78.6983Z" fill="#FFB700"></path><path d="M368.994 78.2426C369.268 78.2426 369.491 78.0201 369.491 77.7457C369.491 77.4712 369.268 77.2488 368.994 77.2488C368.72 77.2488 368.497 77.4712 368.497 77.7457C368.497 78.0201 368.72 78.2426 368.994 78.2426Z" fill="#FFB700"></path><path d="M392.015 77.8693C392.015 77.8693 392.139 77.828 392.139 77.7453C392.139 77.6627 392.097 77.6213 392.015 77.6213C391.932 77.6213 391.891 77.6627 391.891 77.7453C391.891 77.828 391.932 77.8693 392.015 77.8693Z" fill="#FFB700"></path><path d="M92.5896 100.852C92.5896 100.852 92.6722 100.852 92.6722 100.769C92.6722 100.686 92.6722 100.686 92.5896 100.686C92.5069 100.686 92.5068 100.686 92.5068 100.769C92.5068 100.852 92.5069 100.852 92.5896 100.852Z" fill="#FFB700"></path><path d="M115.613 101.058C115.75 101.058 115.861 100.947 115.861 100.81C115.861 100.673 115.75 100.562 115.613 100.562C115.476 100.562 115.365 100.673 115.365 100.81C115.365 100.947 115.476 101.058 115.613 101.058Z" fill="#FFB700"></path><path d="M138.676 101.349C139.007 101.349 139.256 101.1 139.256 100.769C139.256 100.438 139.007 100.189 138.676 100.189C138.345 100.189 138.096 100.438 138.096 100.769C138.096 101.1 138.345 101.349 138.676 101.349Z" fill="#FFB700"></path><path d="M161.701 101.68C162.198 101.68 162.612 101.266 162.612 100.769C162.612 100.272 162.198 99.8577 161.701 99.8577C161.204 99.8577 160.79 100.272 160.79 100.769C160.79 101.266 161.204 101.68 161.701 101.68Z" fill="#FFB700"></path><path d="M184.723 101.887C185.318 101.887 185.8 101.405 185.8 100.811C185.8 100.216 185.318 99.7339 184.723 99.7339C184.129 99.7339 183.646 100.216 183.646 100.811C183.646 101.405 184.129 101.887 184.723 101.887Z" fill="#FFB700"></path><path d="M207.747 102.011C208.409 102.011 208.948 101.473 208.948 100.81C208.948 100.148 208.409 99.6096 207.747 99.6096C207.084 99.6096 206.546 100.148 206.546 100.81C206.546 101.473 207.084 102.011 207.747 102.011Z" fill="#FFB700"></path><path d="M230.811 102.094C231.52 102.094 232.095 101.519 232.095 100.811C232.095 100.102 231.52 99.5269 230.811 99.5269C230.102 99.5269 229.527 100.102 229.527 100.811C229.527 101.519 230.102 102.094 230.811 102.094Z" fill="#FFB700"></path><path d="M253.834 102.011C254.497 102.011 255.034 101.474 255.034 100.81C255.034 100.147 254.497 99.6096 253.834 99.6096C253.17 99.6096 252.633 100.147 252.633 100.81C252.633 101.474 253.17 102.011 253.834 102.011Z" fill="#FFB700"></path><path d="M276.857 101.887C277.452 101.887 277.934 101.405 277.934 100.811C277.934 100.216 277.452 99.7339 276.857 99.7339C276.262 99.7339 275.78 100.216 275.78 100.811C275.78 101.405 276.262 101.887 276.857 101.887Z" fill="#FFB700"></path><path d="M299.884 101.68C300.381 101.68 300.795 101.266 300.795 100.769C300.795 100.272 300.381 99.8577 299.884 99.8577C299.387 99.8577 298.973 100.272 298.973 100.769C298.973 101.266 299.387 101.68 299.884 101.68Z" fill="#FFB700"></path><path d="M322.945 101.432C323.318 101.432 323.567 101.142 323.567 100.811C323.567 100.479 323.277 100.189 322.945 100.189C322.614 100.189 322.324 100.479 322.324 100.811C322.324 101.142 322.614 101.432 322.945 101.432Z" fill="#FFB700"></path><path d="M345.971 101.058C346.108 101.058 346.219 100.947 346.219 100.81C346.219 100.673 346.108 100.562 345.971 100.562C345.834 100.562 345.723 100.673 345.723 100.81C345.723 100.947 345.834 101.058 345.971 101.058Z" fill="#FFB700"></path><path d="M368.993 100.852C368.993 100.852 369.076 100.852 369.076 100.769C369.076 100.686 369.076 100.686 368.993 100.686C368.91 100.686 368.91 100.686 368.91 100.769C368.91 100.852 368.91 100.852 368.993 100.852Z" fill="#FFB700"></path><path d="M138.676 123.875C138.676 123.875 138.759 123.875 138.759 123.792C138.759 123.709 138.759 123.709 138.676 123.709C138.594 123.709 138.594 123.709 138.594 123.792C138.594 123.875 138.594 123.875 138.676 123.875Z" fill="#FFB700"></path><path d="M161.7 123.999C161.7 123.999 161.906 123.916 161.906 123.792C161.906 123.668 161.824 123.585 161.7 123.585C161.576 123.585 161.493 123.668 161.493 123.792C161.493 123.916 161.576 123.999 161.7 123.999Z" fill="#FFB700"></path><path d="M184.726 124.123C184.726 124.123 185.057 123.999 185.057 123.792C185.057 123.585 184.933 123.461 184.726 123.461C184.519 123.461 184.395 123.585 184.395 123.792C184.395 123.999 184.519 124.123 184.726 124.123Z" fill="#FFB700"></path><path d="M207.747 124.289C207.995 124.289 208.202 124.082 208.202 123.834C208.202 123.585 207.995 123.378 207.747 123.378C207.498 123.378 207.291 123.585 207.291 123.834C207.291 124.082 207.498 124.289 207.747 124.289Z" fill="#FFB700"></path><path d="M230.811 124.289C231.059 124.289 231.266 124.082 231.266 123.834C231.266 123.585 231.059 123.378 230.811 123.378C230.563 123.378 230.355 123.585 230.355 123.834C230.355 124.082 230.563 124.289 230.811 124.289Z" fill="#FFB700"></path><path d="M253.836 124.289C254.085 124.289 254.292 124.082 254.292 123.834C254.292 123.585 254.085 123.378 253.836 123.378C253.588 123.378 253.381 123.585 253.381 123.834C253.381 124.082 253.588 124.289 253.836 124.289Z" fill="#FFB700"></path><path d="M276.856 124.206C277.063 124.206 277.229 124.041 277.229 123.834C277.229 123.627 277.063 123.461 276.856 123.461C276.649 123.461 276.483 123.627 276.483 123.834C276.483 124.041 276.649 124.206 276.856 124.206Z" fill="#FFB700"></path><path d="M299.882 123.999C299.882 123.999 300.089 123.916 300.089 123.792C300.089 123.668 300.006 123.585 299.882 123.585C299.758 123.585 299.676 123.668 299.676 123.792C299.676 123.916 299.758 123.999 299.882 123.999Z" fill="#FFB700"></path><path d="M322.945 123.875C322.945 123.875 323.028 123.875 323.028 123.792C323.028 123.709 323.028 123.709 322.945 123.709C322.862 123.709 322.862 123.709 322.862 123.792C322.862 123.875 322.862 123.875 322.945 123.875Z" fill="#FFB700"></path></svg>