<svg xmlns="http://www.w3.org/2000/svg" width="40" height="36" viewBox="0 0 40 36" fill="none"><path d="M22.0307 35.332C22.0307 33.7733 22.0307 31.6949 22.0307 28.8372C22.0307 25.9794 22.0307 23.6413 22.0307 22.3423C22.0307 19.7444 22.0307 17.4062 22.0307 15.3279C22.0307 13.2495 22.5592 11.4309 23.0877 9.35259C23.6162 7.27423 24.409 5.71546 25.466 4.41649C26.5231 3.11752 27.8443 2.07835 29.4299 1.29896C31.0154 0.51958 33.1295 -1.17347e-05 35.5078 -1.17347e-05L40.0001 8.833C36.829 8.833 34.4507 9.61238 33.1295 10.9114C31.8082 12.2103 31.0154 14.5485 31.0154 17.666H40.0001V35.332H22.0307Z" fill="#F79C53"></path><path d="M0.000421524 28.8372V35.332H17.9698V17.666H8.98514C8.98514 14.5485 9.77791 12.2103 11.0992 10.9114C12.4205 9.61238 14.7988 8.833 17.9698 8.833L13.4775 -1.14441e-05C11.0992 -1.14441e-05 8.98514 0.519581 7.3996 1.29897C5.81406 2.07835 4.49278 3.11752 3.43575 4.41649C2.37873 5.71546 1.58596 7.27423 1.05745 9.35259C0.528936 11.4309 0.000421524 13.2495 0.000421524 15.3279V22.3423V28.8372Z" fill="#F79C53"></path></svg>