<svg width="549" height="150" viewBox="0 0 549 150" fill="none" xmlns="http://www.w3.org/2000/svg">
<path d="M65.7187 35.421C70.276 37.3601 67.4272 44.3133 62.7546 42.4896C58.1974 40.5506 53.4095 39.6408 48.5106 39.6408C27.9966 39.6408 13.4109 55.1446 13.4109 75.2139C13.522 93.1178 25.4895 110.565 48.8523 110.565C53.7512 110.565 58.3085 109.536 62.7546 107.827C67.4272 105.888 70.276 112.957 65.7187 114.78C60.3628 116.95 54.661 118.09 48.8523 118.09C20.4753 118.09 6.11592 96.7652 6.00065 75.4444C5.88949 53.7778 20.1336 32.1153 48.8523 32.1153C54.661 32.1153 60.3628 33.2556 65.7187 35.421ZM60.4739 91.9774C64.8048 89.6967 68.4523 96.1971 64.0061 98.589C59.1072 101.442 53.7512 102.693 48.5106 102.582C34.6041 102.352 22.299 92.0886 22.299 75.2139C22.299 51.7276 45.5465 41.3492 64.0061 51.7276C68.4523 54.0083 64.8048 60.7352 60.4739 58.2239C47.2549 50.929 29.8204 57.4253 29.8204 75.2139C29.8204 87.7577 38.5932 94.5998 48.3953 94.9415C52.3845 95.0568 56.6 94.1429 60.4739 91.9774ZM129.307 109.877C131.472 109.877 133.065 111.59 133.065 113.755C133.065 115.809 131.472 117.518 129.307 117.518H84.977C82.8116 117.518 81.099 115.809 81.099 113.755V37.4712C81.099 35.421 82.8116 33.7085 84.977 33.7085C87.0272 33.7085 88.7357 35.421 88.7357 37.4712V109.877H129.307ZM96.3723 37.4712C96.3723 35.421 98.0808 33.7085 100.131 33.7085C102.296 33.7085 104.009 35.421 104.009 37.4712V94.5998H129.307C131.472 94.5998 133.065 96.3083 133.065 98.4778C133.065 100.528 131.472 102.241 129.307 102.241H100.131C98.0808 102.241 96.3723 100.528 96.3723 98.4778V37.4712ZM162.241 86.1604V37.3601C162.241 35.1905 163.949 33.482 165.999 33.482C168.165 33.482 169.873 35.1905 169.873 37.3601V86.1604C169.873 98.2473 187.538 98.2473 187.538 86.1604V37.3601C187.538 35.1905 189.132 33.482 191.412 33.482C193.463 33.482 195.175 35.1905 195.175 37.3601V86.1604C195.175 108.395 162.241 108.395 162.241 86.1604ZM210.671 87.0743C210.671 128.921 146.626 128.806 146.626 87.0743V37.3601C146.626 35.1905 148.334 33.482 150.389 33.482C152.554 33.482 154.263 35.1905 154.263 37.3601V87.0743C154.263 119 203.149 119 203.149 87.0743V37.3601C203.149 35.1905 204.747 33.482 206.912 33.482C208.962 33.482 210.671 35.1905 210.671 37.3601V87.0743ZM297.28 113.64C297.28 115.809 295.571 117.518 293.406 117.518C291.24 117.518 289.532 115.809 289.532 113.64V77.7251L273.917 100.186C272.665 101.899 270.158 102.352 268.45 101.211C268.108 100.87 267.766 100.528 267.536 100.186L251.925 77.7251V113.64C251.925 115.809 250.212 117.518 247.936 117.518C245.886 117.518 244.177 115.809 244.177 113.64V65.4077C244.177 64.2674 244.745 63.0159 245.77 62.3325C247.479 61.0768 249.986 61.5297 251.242 63.2423L270.615 91.294L290.215 63.3575C290.899 62.3325 292.039 61.645 293.406 61.645C295.571 61.645 297.28 63.3575 297.28 65.4077V113.64ZM236.425 113.64C236.425 115.809 234.717 117.518 232.551 117.518C230.386 117.518 228.678 115.809 228.678 113.64V36.3309C228.678 34.1654 230.386 32.457 232.551 32.457C234.717 32.457 236.425 34.1654 236.425 36.3309V113.64ZM312.779 113.64C312.779 115.809 311.067 117.518 308.79 117.518C306.74 117.518 305.027 115.809 305.027 113.64V36.3309C305.027 34.1654 306.74 32.457 308.79 32.457C311.067 32.457 312.779 34.1654 312.779 36.3309V113.64ZM291.697 34.0502C292.949 32.3417 295.341 31.8847 297.164 33.1403C298.877 34.3919 299.219 36.7878 298.078 38.5004L273.917 73.1637C272.665 74.9875 270.158 75.4444 268.45 74.0735C268.108 73.8471 267.766 73.5054 267.536 73.0485L243.379 38.5004C242.238 36.7878 242.58 34.3919 244.288 33.1403C245.997 31.8847 248.508 32.3417 249.76 34.0502L270.615 64.2674L291.697 34.0502ZM413.743 62.4436C414.316 64.4979 413.291 66.6633 411.236 67.2314C409.186 67.9189 406.91 66.7786 406.337 64.7243C403.946 57.4253 399.384 51.1554 393.118 46.594C387.194 42.3743 379.784 39.7519 371.695 39.7519C324.175 39.7519 324.175 111.133 371.695 111.133C379.784 111.133 387.194 108.626 393.118 104.291C399.384 99.8446 403.946 93.5747 406.337 86.1604C406.91 84.1103 409.186 83.0811 411.236 83.6533C413.291 84.2214 414.316 86.5021 413.743 88.5564C410.895 97.4486 405.197 105.205 397.791 110.565C390.385 115.809 381.493 119 371.695 119C313.916 119 313.916 32 371.695 32C381.493 32 390.385 35.0794 397.791 40.3241C405.197 45.7953 410.895 53.4361 413.743 62.4436ZM348.221 89.2398C347.08 87.3008 347.764 85.1353 349.587 83.995C351.522 82.9699 353.803 83.538 354.828 85.477C356.652 88.4411 359.159 91.0635 362.123 92.6608C364.857 94.3693 368.162 95.3985 371.695 95.3985C377.166 95.3985 382.065 93.2289 385.482 89.5815C389.129 86.0493 391.295 81.0309 391.295 75.4444C391.295 69.9691 389.129 64.9507 385.482 61.4185C382.065 57.8822 377.166 55.6015 371.695 55.6015C368.162 55.6015 364.972 56.5155 362.123 58.2239C359.159 59.9365 356.652 62.4436 354.828 65.4077C353.803 67.3467 351.522 68.0301 349.587 67.005C347.764 65.9799 347.08 63.584 348.221 61.645C350.613 57.4253 354.029 53.8931 358.134 51.4971C362.234 49.1011 366.907 47.8496 371.695 47.8496C379.331 47.8496 386.165 50.929 391.183 55.9432C395.967 60.9616 399.047 67.8037 399.047 75.4444C399.047 83.0811 395.967 89.9232 391.183 94.9415C386.165 100.071 379.331 103.15 371.695 103.15C366.907 103.15 362.234 101.784 358.134 99.5029C354.029 96.9958 350.613 93.4595 348.221 89.2398ZM471.98 36.6726C476.648 38.2699 474.145 45.5689 469.357 43.8563C459.098 40.2089 446.793 38.2699 439.272 46.594C433.117 53.0944 431.524 65.066 439.729 72.1345C449.642 81.0309 463.775 79.0919 464.569 91.1788C464.911 97.5639 459.329 102.241 453.174 102.693C445.768 103.15 436.534 101.327 429.017 95.8554C425.028 93.0025 429.474 86.8438 433.459 89.6967C442.236 96.0819 457.62 97.2222 456.937 91.5205C456.48 86.1604 445.196 87.0743 434.599 77.8363C418.074 63.3575 428.103 34.5071 451.581 33.3668C458.415 33.0251 464.001 33.939 471.98 36.6726ZM427.535 112.047C423.204 109.766 426.736 103.039 431.178 105.32C448.728 114.669 472.548 112.273 472.548 91.1788C472.548 75.5556 452.034 72.7068 446.221 68.0301C437.106 60.8463 441.89 40.6658 470.267 52.1805C474.713 54.0083 471.979 61.0768 467.307 59.1378C450.099 52.1805 447.135 59.2531 450.893 62.2172C455.113 65.4077 480.069 69.9691 480.069 91.1788C480.069 112.047 461.605 121.853 440.297 116.719C436.423 115.921 431.977 114.439 427.535 112.047ZM536.477 36.6726C541.15 38.2699 538.643 45.5689 533.859 43.8563C523.6 40.2089 511.295 38.2699 503.773 46.594C497.619 53.0944 496.022 65.066 504.226 72.1345C514.144 81.0309 528.272 79.0919 529.071 91.1788C529.413 97.5639 523.826 102.241 517.676 102.693C510.27 103.15 501.036 101.327 493.514 95.8554C489.525 93.0025 493.971 86.8438 497.961 89.6967C506.733 96.0819 522.118 97.2222 521.434 91.5205C520.977 86.1604 509.697 87.0743 499.101 77.8363C482.576 63.3575 492.605 34.5071 516.078 33.3668C522.916 33.0251 528.503 33.939 536.477 36.6726ZM492.032 112.047C487.706 109.766 491.238 103.039 495.68 105.32C513.23 114.669 537.049 112.273 537.049 91.1788C537.049 75.5556 516.535 72.7068 510.723 68.0301C501.608 60.8463 506.392 40.6658 534.769 52.1805C539.215 54.0083 536.477 61.0768 531.805 59.1378C514.596 52.1805 511.636 59.2531 515.395 62.2172C519.611 65.4077 544.571 69.9691 544.571 91.1788C544.571 112.047 526.107 121.853 504.798 116.719C500.925 115.921 496.478 114.439 492.032 112.047Z" fill="#513DE8"/>
<path d="M65.7187 35.421C70.276 37.3601 67.4272 44.3133 62.7546 42.4896C58.1974 40.5506 53.4095 39.6408 48.5106 39.6408C27.9966 39.6408 13.4109 55.1446 13.4109 75.2139C13.522 93.1178 25.4895 110.565 48.8523 110.565C53.7512 110.565 58.3085 109.536 62.7546 107.827C67.4272 105.888 70.276 112.957 65.7187 114.78C60.3628 116.95 54.661 118.09 48.8523 118.09C20.4753 118.09 6.11592 96.7652 6.00065 75.4444C5.88949 53.7778 20.1336 32.1153 48.8523 32.1153C54.661 32.1153 60.3628 33.2556 65.7187 35.421ZM60.4739 91.9774C64.8048 89.6967 68.4523 96.1971 64.0061 98.589C59.1072 101.442 53.7512 102.693 48.5106 102.582C34.6041 102.352 22.299 92.0886 22.299 75.2139C22.299 51.7276 45.5465 41.3492 64.0061 51.7276C68.4523 54.0083 64.8048 60.7352 60.4739 58.2239C47.2549 50.929 29.8204 57.4253 29.8204 75.2139C29.8204 87.7577 38.5932 94.5998 48.3953 94.9415C52.3845 95.0568 56.6 94.1429 60.4739 91.9774ZM129.307 109.877C131.472 109.877 133.065 111.59 133.065 113.755C133.065 115.809 131.472 117.518 129.307 117.518H84.977C82.8116 117.518 81.099 115.809 81.099 113.755V37.4712C81.099 35.421 82.8116 33.7085 84.977 33.7085C87.0272 33.7085 88.7357 35.421 88.7357 37.4712V109.877H129.307ZM96.3723 37.4712C96.3723 35.421 98.0808 33.7085 100.131 33.7085C102.296 33.7085 104.009 35.421 104.009 37.4712V94.5998H129.307C131.472 94.5998 133.065 96.3083 133.065 98.4778C133.065 100.528 131.472 102.241 129.307 102.241H100.131C98.0808 102.241 96.3723 100.528 96.3723 98.4778V37.4712ZM162.241 86.1604V37.3601C162.241 35.1905 163.949 33.482 165.999 33.482C168.165 33.482 169.873 35.1905 169.873 37.3601V86.1604C169.873 98.2473 187.538 98.2473 187.538 86.1604V37.3601C187.538 35.1905 189.132 33.482 191.412 33.482C193.463 33.482 195.175 35.1905 195.175 37.3601V86.1604C195.175 108.395 162.241 108.395 162.241 86.1604ZM210.671 87.0743C210.671 128.921 146.626 128.806 146.626 87.0743V37.3601C146.626 35.1905 148.334 33.482 150.389 33.482C152.554 33.482 154.263 35.1905 154.263 37.3601V87.0743C154.263 119 203.149 119 203.149 87.0743V37.3601C203.149 35.1905 204.747 33.482 206.912 33.482C208.962 33.482 210.671 35.1905 210.671 37.3601V87.0743ZM297.28 113.64C297.28 115.809 295.571 117.518 293.406 117.518C291.24 117.518 289.532 115.809 289.532 113.64V77.7251L273.917 100.186C272.665 101.899 270.158 102.352 268.45 101.211C268.108 100.87 267.766 100.528 267.536 100.186L251.925 77.7251V113.64C251.925 115.809 250.212 117.518 247.936 117.518C245.886 117.518 244.177 115.809 244.177 113.64V65.4077C244.177 64.2674 244.745 63.0159 245.77 62.3325C247.479 61.0768 249.986 61.5297 251.242 63.2423L270.615 91.294L290.215 63.3575C290.899 62.3325 292.039 61.645 293.406 61.645C295.571 61.645 297.28 63.3575 297.28 65.4077V113.64ZM236.425 113.64C236.425 115.809 234.717 117.518 232.551 117.518C230.386 117.518 228.678 115.809 228.678 113.64V36.3309C228.678 34.1654 230.386 32.457 232.551 32.457C234.717 32.457 236.425 34.1654 236.425 36.3309V113.64ZM312.779 113.64C312.779 115.809 311.067 117.518 308.79 117.518C306.74 117.518 305.027 115.809 305.027 113.64V36.3309C305.027 34.1654 306.74 32.457 308.79 32.457C311.067 32.457 312.779 34.1654 312.779 36.3309V113.64ZM291.697 34.0502C292.949 32.3417 295.341 31.8847 297.164 33.1403C298.877 34.3919 299.219 36.7878 298.078 38.5004L273.917 73.1637C272.665 74.9875 270.158 75.4444 268.45 74.0735C268.108 73.8471 267.766 73.5054 267.536 73.0485L243.379 38.5004C242.238 36.7878 242.58 34.3919 244.288 33.1403C245.997 31.8847 248.508 32.3417 249.76 34.0502L270.615 64.2674L291.697 34.0502ZM413.743 62.4436C414.316 64.4979 413.291 66.6633 411.236 67.2314C409.186 67.9189 406.91 66.7786 406.337 64.7243C403.946 57.4253 399.384 51.1554 393.118 46.594C387.194 42.3743 379.784 39.7519 371.695 39.7519C324.175 39.7519 324.175 111.133 371.695 111.133C379.784 111.133 387.194 108.626 393.118 104.291C399.384 99.8446 403.946 93.5747 406.337 86.1604C406.91 84.1103 409.186 83.0811 411.236 83.6533C413.291 84.2214 414.316 86.5021 413.743 88.5564C410.895 97.4486 405.197 105.205 397.791 110.565C390.385 115.809 381.493 119 371.695 119C313.916 119 313.916 32 371.695 32C381.493 32 390.385 35.0794 397.791 40.3241C405.197 45.7953 410.895 53.4361 413.743 62.4436ZM348.221 89.2398C347.08 87.3008 347.764 85.1353 349.587 83.995C351.522 82.9699 353.803 83.538 354.828 85.477C356.652 88.4411 359.159 91.0635 362.123 92.6608C364.857 94.3693 368.162 95.3985 371.695 95.3985C377.166 95.3985 382.065 93.2289 385.482 89.5815C389.129 86.0493 391.295 81.0309 391.295 75.4444C391.295 69.9691 389.129 64.9507 385.482 61.4185C382.065 57.8822 377.166 55.6015 371.695 55.6015C368.162 55.6015 364.972 56.5155 362.123 58.2239C359.159 59.9365 356.652 62.4436 354.828 65.4077C353.803 67.3467 351.522 68.0301 349.587 67.005C347.764 65.9799 347.08 63.584 348.221 61.645C350.613 57.4253 354.029 53.8931 358.134 51.4971C362.234 49.1011 366.907 47.8496 371.695 47.8496C379.331 47.8496 386.165 50.929 391.183 55.9432C395.967 60.9616 399.047 67.8037 399.047 75.4444C399.047 83.0811 395.967 89.9232 391.183 94.9415C386.165 100.071 379.331 103.15 371.695 103.15C366.907 103.15 362.234 101.784 358.134 99.5029C354.029 96.9958 350.613 93.4595 348.221 89.2398ZM471.98 36.6726C476.648 38.2699 474.145 45.5689 469.357 43.8563C459.098 40.2089 446.793 38.2699 439.272 46.594C433.117 53.0944 431.524 65.066 439.729 72.1345C449.642 81.0309 463.775 79.0919 464.569 91.1788C464.911 97.5639 459.329 102.241 453.174 102.693C445.768 103.15 436.534 101.327 429.017 95.8554C425.028 93.0025 429.474 86.8438 433.459 89.6967C442.236 96.0819 457.62 97.2222 456.937 91.5205C456.48 86.1604 445.196 87.0743 434.599 77.8363C418.074 63.3575 428.103 34.5071 451.581 33.3668C458.415 33.0251 464.001 33.939 471.98 36.6726ZM427.535 112.047C423.204 109.766 426.736 103.039 431.178 105.32C448.728 114.669 472.548 112.273 472.548 91.1788C472.548 75.5556 452.034 72.7068 446.221 68.0301C437.106 60.8463 441.89 40.6658 470.267 52.1805C474.713 54.0083 471.979 61.0768 467.307 59.1378C450.099 52.1805 447.135 59.2531 450.893 62.2172C455.113 65.4077 480.069 69.9691 480.069 91.1788C480.069 112.047 461.605 121.853 440.297 116.719C436.423 115.921 431.977 114.439 427.535 112.047ZM536.477 36.6726C541.15 38.2699 538.643 45.5689 533.859 43.8563C523.6 40.2089 511.295 38.2699 503.773 46.594C497.619 53.0944 496.022 65.066 504.226 72.1345C514.144 81.0309 528.272 79.0919 529.071 91.1788C529.413 97.5639 523.826 102.241 517.676 102.693C510.27 103.15 501.036 101.327 493.514 95.8554C489.525 93.0025 493.971 86.8438 497.961 89.6967C506.733 96.0819 522.118 97.2222 521.434 91.5205C520.977 86.1604 509.697 87.0743 499.101 77.8363C482.576 63.3575 492.605 34.5071 516.078 33.3668C522.916 33.0251 528.503 33.939 536.477 36.6726ZM492.032 112.047C487.706 109.766 491.238 103.039 495.68 105.32C513.23 114.669 537.049 112.273 537.049 91.1788C537.049 75.5556 516.535 72.7068 510.723 68.0301C501.608 60.8463 506.392 40.6658 534.769 52.1805C539.215 54.0083 536.477 61.0768 531.805 59.1378C514.596 52.1805 511.636 59.2531 515.395 62.2172C519.611 65.4077 544.571 69.9691 544.571 91.1788C544.571 112.047 526.107 121.853 504.798 116.719C500.925 115.921 496.478 114.439 492.032 112.047Z" fill="#513DE8"/>
</svg>
