<svg width="53" height="55" viewBox="0 0 53 55" fill="none" xmlns="http://www.w3.org/2000/svg">
<path d="M24.4803 0.43939C19.6128 0.909296 14.9646 2.69284 11.0321 5.59943C7.0996 8.50602 4.03073 12.4264 2.15338 16.9418C0.276032 21.4571 -0.339243 26.3977 0.3733 31.2355C1.08584 36.0734 3.09943 40.6267 6.1989 44.4091C9.29836 48.1914 13.3672 51.0605 17.9707 52.7099C22.5742 54.3593 27.5394 54.7269 32.3356 53.7735C37.1318 52.8201 41.5788 50.5815 45.2016 47.2969C48.8243 44.0123 51.4865 39.8051 52.9038 35.125L41.7084 31.7347C40.9054 34.3864 39.397 36.77 37.3445 38.631C35.292 40.492 32.7724 41.7603 30.0549 42.3005C27.3375 42.8407 24.5244 42.6324 21.9162 41.6979C19.308 40.7634 17.0026 39.1378 15.2466 36.9948C13.4905 34.8519 12.3496 32.2721 11.9459 29.531C11.5422 26.79 11.8908 23.9908 12.9545 21.4326C14.0181 18.8743 15.7569 16.6531 17.9849 15.0063C20.213 13.3595 22.8466 12.349 25.6043 12.0827L24.4803 0.43939Z" fill="url(#paint0_linear_815_190)"/>
<defs>
<linearGradient id="paint0_linear_815_190" x1="40.1558" y1="62.0443" x2="-9.32215" y2="24.4017" gradientUnits="userSpaceOnUse">
<stop stop-color="#5944F4"/>
<stop offset="1" stop-color="#E1D9FD"/>
</linearGradient>
</defs>
</svg>
