<svg width="1080" height="1080" viewBox="0 0 1080 1080" fill="none" xmlns="http://www.w3.org/2000/svg">
<rect width="1080" height="1080" fill="#6801FF"/>
<path d="M739.032 264.916C770.628 278.358 750.877 326.56 718.482 313.917C686.886 300.476 653.692 294.169 619.727 294.169C477.503 294.169 376.38 401.645 376.38 540.771C377.15 664.885 460.121 785.831 622.096 785.831C656.061 785.831 687.657 778.697 718.482 766.853C750.877 753.412 770.628 802.412 739.032 815.055C701.899 830.095 662.369 838 622.096 838C425.357 838 325.804 690.17 325.004 542.369C324.234 392.17 422.988 242 622.096 242C662.369 242 701.899 249.905 739.032 264.916ZM702.67 656.98C732.696 641.169 757.984 686.232 727.158 702.813C693.194 722.59 656.061 731.266 619.727 730.495C523.313 728.897 438.001 657.75 438.001 540.771C438.001 377.958 599.177 306.012 727.158 377.958C757.984 393.768 732.696 440.4 702.67 422.992C611.022 372.421 490.147 417.455 490.147 540.771C490.147 627.728 550.97 675.159 618.928 677.527C646.585 678.327 675.812 671.991 702.67 656.98Z" fill="white"/>
<path d="M739.032 264.916C770.628 278.358 750.877 326.56 718.482 313.917C686.886 300.476 653.692 294.169 619.727 294.169C477.503 294.169 376.38 401.645 376.38 540.771C377.15 664.885 460.121 785.831 622.096 785.831C656.061 785.831 687.657 778.697 718.482 766.853C750.877 753.412 770.628 802.412 739.032 815.055C701.899 830.095 662.369 838 622.096 838C425.357 838 325.804 690.17 325.004 542.369C324.234 392.17 422.988 242 622.096 242C662.369 242 701.899 249.905 739.032 264.916ZM702.67 656.98C732.696 641.169 757.984 686.232 727.158 702.813C693.194 722.59 656.061 731.266 619.727 730.495C523.313 728.897 438.001 657.75 438.001 540.771C438.001 377.958 599.177 306.012 727.158 377.958C757.984 393.768 732.696 440.4 702.67 422.992C611.022 372.421 490.147 417.455 490.147 540.771C490.147 627.728 550.97 675.159 618.928 677.527C646.585 678.327 675.812 671.991 702.67 656.98Z" fill="white"/>
</svg>
